# xmcd
# 
# Track frame offsets:
#     150
#     16701
#     30383
#     42461
#     59593
#     72669
#     86963
#     103988
#     116602
#     133112
#     154072
#     174041
# 
# Disc length: 2579
# 
# Revision: 2
# Processed by: cddbd v1.5.2PL0 Copyright (c) Steve Scherf et al.
# Submitted via: BonkEnc v1.0.5
# 
DISCID=a30a110c
DTITLE=Various Artist - 愛と青春のベスト・ヒット 〜女性ボーカル編〜
DYEAR=2001
DGENRE=Pop
TTITLE0=魅せられて
TTITLE1=雨がやんだら
TTITLE2=夜が明けて
TTITLE3=他人の関係
TTITLE4=浮世絵の街
TTITLE5=同棲時代
TTITLE6=逃避行
TTITLE7=奪われたいの
TTITLE8=CHA-CHA-CHA
TTITLE9=サバの女王
TTITLE10=東京ららばい
TTITLE11=真夏の出来事
EXTD=MHCL42
EXTT0=
EXTT1=
EXTT2=
EXTT3=
EXTT4=
EXTT5=
EXTT6=
EXTT7=
EXTT8=
EXTT9=
EXTT10=
EXTT11=
PLAYORDER=
